<svg xmlns="http://www.w3.org/2000/svg" viewBox="0 0 16 16">
  <defs>
    <style>.canvas{fill: none; opacity: 0;}.light-defaultgrey-10{fill: #212121; opacity: 0.1;}.light-defaultgrey{fill: #212121; opacity: 1;}.light-green{fill: #1f801f; opacity: 1;}.cls-1{opacity:0.75;}</style>
  </defs>
  <title>CSProjectNode</title>
  <g id="canvas" class="canvas">
    <path class="canvas" d="M16,16H0V0H16Z" />
  </g>
  <g id="level-1">
    <g class="cls-1">
      <path class="light-defaultgrey-10" d="M14.5,2.5v11H1.5V2.5Z" />
      <path class="light-defaultgrey" d="M14.5,2H1.5L1,2.5v11l.5.5h13l.5-.5V2.5ZM14,13H2V3H14Z" />
    </g>
    <path class="light-green" d="M12,7V8h1V9H12v1H11V9H10v1H9V9H8V8H9V7H8V6H9V5h1V6h1V5h1V6h1V7ZM11,7H10V8h1Z" />
    <path class="light-green" d="M7.417,10.66A3.516,3.516,0,0,1,5.785,11a2.667,2.667,0,0,1-2.024-.8A2.906,2.906,0,0,1,3,8.109a3.053,3.053,0,0,1,.856-2.251A2.93,2.93,0,0,1,6.02,5a3.533,3.533,0,0,1,1.4.239v.955a2.492,2.492,0,0,0-1.3-.348,2.033,2.033,0,0,0-1.528.6,2.219,2.219,0,0,0-.585,1.612,2.111,2.111,0,0,0,.547,1.528,1.9,1.9,0,0,0,1.437.569,2.573,2.573,0,0,0,1.425-.389Z" />
  </g>
</svg>
