<svg xmlns="http://www.w3.org/2000/svg" viewBox="0 0 16 16">
  <defs>
    <style>.canvas{fill: none; opacity: 0;}.light-defaultgrey{fill: #212121; opacity: 1;}.light-defaultgrey-10{fill: #212121; opacity: 0.1;}</style>
  </defs>
  <title>IconLightFrameworkPrivate</title>
  <g id="canvas">
    <path class="canvas" d="M16,16H0V0H16Z" />
  </g>
  <g id="level-1">
    <path class="light-defaultgrey" d="M11,5h2V7H11ZM7,9h3V6H7Z" />
    <path class="light-defaultgrey-10" d="M15.5,11.5v4h-5v-4Z" />
    <path class="light-defaultgrey" d="M9,12H6L5,11V8H4V9H1V6H4V7H5V4L6,3h8l1,1V7.78a2.989,2.989,0,0,0-1-.6V4H6v7H9.086L9,11.086Z" />
    <path class="light-defaultgrey-10" d="M10,10.086V10a3,3,0,0,1,3-3H11V5h2V7a2.966,2.966,0,0,1,1,.184V4H6v7H9.086ZM7,6h3V9H7Z" />
    <path class="light-defaultgrey" d="M15.5,11H15V10a2,2,0,0,0-4,0v1h-.5l-.5.5v4l.5.5h5l.5-.5v-4ZM12,10a1,1,0,0,1,2,0v1H12Zm3,5H11V12h4Z" />
  </g>
</svg>
