<svg xmlns="http://www.w3.org/2000/svg" viewBox="0 0 16 16">
  <defs>
    <style>.canvas{fill: none; opacity: 0;}.light-yellow-10{fill: #996f00; opacity: 0.1;}.light-yellow-25{fill: #996f00; opacity: 0.25;}.light-yellow{fill: #996f00; opacity: 1;}.light-blue{fill: #005dba; opacity: 1;}</style>
  </defs>
  <title>IconLightOpenFolder</title>
  <g id="canvas" class="canvas">
    <path class="canvas" d="M16,16H0V0H16Z" />
  </g>
  <g id="level-1">
    <path class="light-yellow-10" d="M11.5,6V8H3.431l-.464.314L1.5,11.981V4.5h4L7,6h4.5Z" />
    <path class="light-yellow-25" d="M14.5,8.5l-2,5H1.5l2-5Z" />
    <path class="light-yellow-25" d="M12,13H11V9h1Z" />
    <path class="light-yellow" d="M14.431,8H12V5.5L11.5,5H11V8H3.431l-.464.314L2,10.8V5H5.293l1,1H8V5H6.707l-.853-.854L5.5,4h-4L1,4.5v8.864L1.431,14h11l.464-.314,2-5Zm-2.339,5H2.169l1.6-4h9.922Z" />
    <path class="light-blue" d="M14.854,2.146v.708l-2,2-.707-.708L13.293,3H12a2,2,0,0,0-2,2V6H9V5a3,3,0,0,1,3-3h1.293L12.147.854l.707-.708Z" />
  </g>
</svg>
