<svg xmlns="http://www.w3.org/2000/svg" viewBox="0 0 16 16">
  <defs>
    <style>.canvas{fill: none; opacity: 0;}.light-defaultgrey-10{fill: #212121; opacity: 0.1;}.light-defaultgrey{fill: #212121; opacity: 1;}</style>
  </defs>
  <title>IconLightSettings</title>
  <g id="canvas" class="canvas">
    <path class="canvas" d="M16,16H0V0H16Z" />
  </g>
  <g id="level-1">
    <path class="light-defaultgrey-10" d="M14.5,9V7L12,6.5l-.111-.268L13.3,4.111,11.889,2.7,9.768,4.111,9.5,4,9,1.5H7L6.5,4l-.268.111L4.111,2.7,2.7,4.111,4.111,6.232,4,6.5,1.5,7V9L4,9.5l.111.268L2.7,11.889,4.111,13.3l2.121-1.414L6.5,12,7,14.5H9L9.5,12l.268-.111L11.889,13.3,13.3,11.889,11.889,9.768,12,9.5ZM8,11a3,3,0,1,1,3-3A3,3,0,0,1,8,11Z" />
    <path class="light-defaultgrey" d="M8,11a3,3,0,1,1,3-3A3,3,0,0,1,8,11ZM8,6a2,2,0,1,0,2,2A2,2,0,0,0,8,6Z" />
    <path class="light-defaultgrey" d="M15,6.59l-2.426-.485,1.373-2.057L11.952,2.053,9.9,3.426,9.41,1H6.59L6.105,3.426,4.048,2.053l-1.995,2L3.426,6.105,1,6.59V9.41L3.426,9.9,2.053,11.952l2,1.995,2.057-1.373L6.59,15H9.41L9.9,12.574l2.057,1.373,1.995-1.995L12.574,9.9,15,9.41Zm-1,2-2.359.472-.317.76,1.336,2-.835.835-2-1.336-.76.317L8.59,14H7.41l-.472-2.359-.76-.317-2,1.336-.835-.835,1.336-2-.317-.76L2,8.59V7.41l2.359-.472.317-.76-1.336-2,.835-.835,2,1.336.76-.317L7.41,2H8.59l.472,2.359.76.317,2-1.336.835.835-1.336,2,.317.76L14,7.41Z" />
  </g>
</svg>
