<svg xmlns="http://www.w3.org/2000/svg" viewBox="0 0 16 16">
  <defs>
    <style>.canvas{fill: none; opacity: 0;}.light-defaultgrey-10{fill: #212121; opacity: 0.1;}.light-defaultgrey{fill: #212121; opacity: 1;}.cls-1{opacity:0.75;}</style>
  </defs>
  <title>IconLightCalendar</title>
  <g id="canvas" class="canvas">
    <path class="canvas" d="M16,16H0V0H16Z" />
  </g>
  <g id="level-1">
    <path class="light-defaultgrey-10" d="M14.5,2.5v3H1.5v-3Z" />
    <path class="light-defaultgrey" d="M14.5,2H11V1H10V2H6V1H5V2H1.5L1,2.5v3l.5.5h13l.5-.5v-3ZM14,5H2V3H5V4H6V3h4V4h1V3h3Z" />
    <g class="cls-1">
      <path class="light-defaultgrey-10" d="M14.5,6v7.5H1.5V6Z" />
      <path class="light-defaultgrey" d="M15,5.5v8l-.5.5H1.5L1,13.5v-8l.5.5H2v7H14V6h.5Z" />
    </g>
    <path class="light-defaultgrey" d="M11,12H8v-.586a1.517,1.517,0,0,1,.109-.57,1.533,1.533,0,0,1,.258-.422,5.46,5.46,0,0,1,.391-.414q.219-.211.429-.391a4.511,4.511,0,0,0,.4-.383,2.993,2.993,0,0,0,.3-.367A.694.694,0,0,0,10,8.5a.5.5,0,0,0-.813-.391.543.543,0,0,0-.179.289l-.977-.2a1.372,1.372,0,0,1,.18-.476,1.292,1.292,0,0,1,.344-.375A1.962,1.962,0,0,1,9,7.094,1.323,1.323,0,0,1,9.5,7a1.474,1.474,0,0,1,.586.117,1.5,1.5,0,0,1,.8.8A1.474,1.474,0,0,1,11,8.5a1.639,1.639,0,0,1-.086.547,1.738,1.738,0,0,1-.242.453,3.506,3.506,0,0,1-.344.4q-.187.188-.4.36a5.09,5.09,0,0,0-.4.359q-.187.188-.367.383H11Z" />
    <path class="light-defaultgrey" d="M6.1,8.148a3.152,3.152,0,0,1-.532.243A1.688,1.688,0,0,1,5,8.5v-1a.924.924,0,0,0,.242-.047,2.486,2.486,0,0,0,.313-.117,1.5,1.5,0,0,0,.281-.164A.673.673,0,0,0,6.008,7H7v5H6.1Z" />
  </g>
</svg>
